<?xml version="1.0" standalone="no"?>
<!DOCTYPE svg PUBLIC "-//W3C//DTD SVG 20010904//EN"
 "http://www.w3.org/TR/2001/REC-SVG-20010904/DTD/svg10.dtd">
<svg version="1.0" xmlns="http://www.w3.org/2000/svg"
 width="305.000000pt" height="305.000000pt" viewBox="0 0 305.000000 305.000000"
 preserveAspectRatio="xMidYMid meet">
<metadata>
Created by potrace 1.14, written by Peter Selinger 2001-2017
</metadata>
<g transform="translate(0.000000,305.000000) scale(0.100000,-0.100000)"
fill="#000000" stroke="none">
<path d="M60 1525 l0 -1465 1465 0 1465 0 0 1465 0 1465 -1465 0 -1465 0 0
-1465z m2720 10 l0 -1285 -1255 0 c-997 0 -1255 3 -1255 13 0 172 -1 1412 0
1900 l0 657 1255 0 1255 0 0 -1285z"/>
<path d="M330 2131 l0 -621 110 0 110 0 0 73 c0 331 174 710 428 930 60 52
197 150 226 160 18 7 -4 23 -69 48 -59 23 -68 24 -432 27 l-373 3 0 -620z"/>
<path d="M1264 2735 c24 -18 32 -18 71 0 29 13 29 13 -30 14 -55 0 -58 -1 -41
-14z"/>
<path d="M2322 2702 c52 -26 120 -68 153 -94 62 -47 174 -160 213 -213 l21
-30 1 193 0 192 -240 0 -241 0 93 -48z"/>
<path d="M1628 2734 c-5 -4 -8 -281 -8 -616 l0 -608 228 0 c126 0 304 -3 395
-7 l167 -6 0 531 0 531 -30 21 c-55 40 -200 101 -298 127 -80 21 -127 26 -272
30 -96 3 -178 2 -182 -3z"/>
<path d="M1445 2699 c-38 -11 -71 -22 -74 -24 -2 -3 19 -29 47 -59 28 -29 69
-82 91 -116 l41 -63 0 141 c0 163 9 153 -105 121z"/>
<path d="M1214 2598 c-351 -209 -558 -560 -588 -995 l-7 -93 230 0 c262 0 310
9 419 80 174 112 270 286 279 505 6 130 -8 201 -63 313 -34 69 -142 199 -184
222 -12 6 -36 -3 -86 -32z"/>
<path d="M2480 2002 l0 -502 115 0 115 0 0 375 c0 208 -4 374 -9 372 -5 -1
-31 32 -59 73 -28 41 -76 100 -106 130 l-56 54 0 -502z"/>
<path d="M1521 1755 c-34 -65 -125 -161 -200 -211 l-66 -44 148 0 147 0 0 150
c0 83 -1 150 -3 150 -1 0 -13 -20 -26 -45z"/>
<path d="M330 875 l0 -565 533 0 532 1 -83 39 c-138 65 -249 144 -363 259
-114 114 -184 211 -254 349 -56 110 -110 274 -125 377 -7 44 -14 86 -16 93 -2
9 -34 12 -114 12 l-110 0 0 -565z"/>
<path d="M630 1419 c0 -51 44 -232 77 -314 173 -439 559 -742 992 -780 50 -4
82 -4 80 2 -2 5 -193 257 -424 561 l-420 552 -152 0 c-149 0 -153 -1 -153 -21z"/>
<path d="M1027 1428 c6 -7 123 -163 262 -345 139 -183 254 -333 257 -333 2 0
4 155 4 345 l0 345 -266 0 c-212 0 -264 -3 -257 -12z"/>
<path d="M1620 1043 l0 -398 123 -160 123 -160 44 3 c125 9 299 61 423 124
l77 40 0 474 0 474 -395 0 -395 0 0 -397z"/>
<path d="M2480 995 c0 -245 3 -445 6 -445 16 0 120 98 170 160 l54 67 0 332 0
331 -115 0 -115 0 0 -445z"/>
<path d="M2647 589 c-99 -101 -248 -196 -402 -255 l-60 -23 263 -1 262 0 0
170 c0 94 -1 169 -2 169 -2 -1 -29 -28 -61 -60z"/>
</g>
</svg>
