<?xml version="1.0" standalone="no"?>
<!DOCTYPE svg PUBLIC "-//W3C//DTD SVG 20010904//EN"
 "http://www.w3.org/TR/2001/REC-SVG-20010904/DTD/svg10.dtd">
<svg version="1.0" xmlns="http://www.w3.org/2000/svg"
 width="305.000000pt" height="305.000000pt" viewBox="0 0 305.000000 305.000000"
 preserveAspectRatio="xMidYMid meet">
<metadata>
Created by potrace 1.14, written by Peter Selinger 2001-2017
</metadata>
<g transform="translate(0.000000,305.000000) scale(0.100000,-0.100000)"
fill="#000000" stroke="none">
<path d="M0 1525 l0 -1525 1525 0 1525 0 0 1525 0 1525 -1525 0 -1525 0 0
-1525z m1032 732 c241 -119 338 -430 212 -679 -52 -103 -176 -205 -274 -224
-16 -4 -30 -8 -30 -10 0 -2 86 -137 190 -300 105 -163 190 -298 190 -300 0 -2
-29 -4 -64 -4 l-64 0 -189 295 -188 294 -252 1 -253 0 0 -295 0 -295 -55 0
-55 0 0 780 0 781 378 -3 378 -3 76 -38z m718 -312 l0 -355 490 0 490 0 0 355
0 355 60 0 60 0 0 -780 0 -780 -60 0 -60 0 0 375 0 375 -490 0 -490 0 0 -375
0 -375 -55 0 -55 0 0 780 0 780 55 0 55 0 0 -355z"/>
<path d="M310 1815 l0 -387 308 4 307 3 56 28 c143 70 230 251 200 416 -17 90
-55 163 -118 222 -98 92 -103 94 -450 97 l-303 3 0 -386z"/>
</g>
</svg>
